# xmcd CD database file
#
# Track frame offsets:
#	150
#	13190
#	27405
#	45770
#	71105
#	88090
#	118060
#	141990
#	159980
#	183420
#	203425
#
# Disc length: 3110 seconds
#
# Revision: 0
# Processed by: cddbd v1.5.1PL0 Copyright (c) Steve Scherf et al.
# Submitted via: CDex 1.51
#
DISCID=900c240b
DTITLE=Girl Talk - Talkin' Jazz
DYEAR=1996
DGENRE=Jazz
TTITLE0=Girl Talk
TTITLE1=Blue and Sentimental
TTITLE2=O Grande Amor
TTITLE3=Polkadots and Moonbeams
TTITLE4=September in the Rain
TTITLE5=It's Easy to Remember
TTITLE6=Estaté
TTITLE7=Let's Cool One
TTITLE8=Blame it on my youth
TTITLE9=Beautiful Love
TTITLE10=I fall in love too Easily
EXTD=YEAR: 1996
EXTT0=
EXTT1=
EXTT2=
EXTT3=
EXTT4=
EXTT5=
EXTT6=
EXTT7=
EXTT8=
EXTT9=
EXTT10=
PLAYORDER=
